<?xml version="1.0" encoding="UTF-8"?>
<svg width="1024" height="1024" viewBox="0 0 1024 1024" fill="none" xmlns="http://www.w3.org/2000/svg">
  <!-- Background Circle -->
  <circle cx="512" cy="512" r="500" fill="#9C27B0" stroke="#7B1FA2" stroke-width="24"/>
  
  <!-- Dancer Silhouette -->
  <path d="M512 200C350.5 200 216 334.5 216 496C216 657.5 350.5 792 512 792C673.5 792 808 657.5 808 496C808 334.5 673.5 200 512 200ZM512 752C378.5 752 272 645.5 272 512C272 378.5 378.5 272 512 272C645.5 272 752 378.5 752 512C752 645.5 645.5 752 512 752Z" fill="white"/>
  <path d="M512 312C439.5 312 380 371.5 380 444V512C380 584.5 439.5 644 512 644C584.5 644 644 584.5 644 512V444C644 371.5 584.5 312 512 312ZM596 512C596 551.9 551.9 596 512 596C472.1 596 428 551.9 428 512V444C428 404.1 472.1 360 512 360C551.9 360 596 404.1 596 444V512Z" fill="white"/>
  <path d="M512 500C498.7 500 488 510.7 488 524V612C488 625.3 498.7 636 512 636C525.3 636 536 625.3 536 612V524C536 510.7 525.3 500 512 500Z" fill="white"/>
  <path d="M488 380C494.6 380 500 374.6 500 368C500 361.4 494.6 356 488 356C481.4 356 476 361.4 476 368C476 374.6 481.4 380 488 380Z" fill="white"/>
  <path d="M536 380C542.6 380 548 374.6 548 368C548 361.4 542.6 356 536 356C529.4 356 524 361.4 524 368C524 374.6 529.4 380 536 380Z" fill="white"/>
  
  <!-- Decorative Elements -->
  <circle cx="380" cy="420" r="8" fill="#FFC107"/>
  <circle cx="644" cy="420" r="8" fill="#FFC107"/>
  <circle cx="428" cy="480" r="4" fill="#FFC107"/>
  <circle cx="452" cy="460" r="4" fill="#FFC107"/>
  <circle cx="476" cy="480" r="4" fill="#FFC107"/>
  <circle cx="500" cy="460" r="4" fill="#FFC107"/>
  <circle cx="524" cy="480" r="4" fill="#FFC107"/>
  <circle cx="548" cy="460" r="4" fill="#FFC107"/>
  <circle cx="572" cy="480" r="4" fill="#FFC107"/>
  <circle cx="596" cy="460" r="4" fill="#FFC107"/>
  
  <!-- Text: Abhinaya Sutra -->
  <path d="M312 700C312 689 320 680 332 680C343 680 352 688 352 700V740C352 751 343 760 332 760H312V700Z" fill="white"/>
  <path d="M392 700C392 689 400 680 412 680C423 680 432 688 432 700V740C432 751 423 760 412 760H392V700Z" fill="white"/>
  <path d="M472 700C472 689 480 680 492 680C503 680 512 688 512 700V760H492C480 760 472 751 472 740V700Z" fill="white"/>
  <path d="M552 700C552 689 560 680 572 680C583 680 592 688 592 700V740C592 751 583 760 572 760H552V700Z" fill="white"/>
  <path d="M632 700C632 689 640 680 652 680C663 680 672 688 672 700V740C672 751 663 760 652 760H632V700Z" fill="white"/>
  <path d="M712 700C712 689 720 680 732 680C743 680 752 688 752 700V740C752 751 743 760 732 760H712V700Z" fill="white"/>
  
  <!-- Decorative Border -->
  <circle cx="512" cy="512" r="490" stroke="#FFC107" stroke-width="4" stroke-dasharray="20,10" fill="none" opacity="0.5"/>
  <circle cx="512" cy="512" r="470" stroke="#FFC107" stroke-width="2" stroke-dasharray="10,5" fill="none" opacity="0.3"/>
</svg>
